<?xml version="1.0" encoding="utf-8"?>
<!-- Generator: Adobe Illustrator 19.0.0, SVG Export Plug-In . SVG Version: 6.00 Build 0)  -->
<svg version="1.1" id="Capa_1" xmlns="http://www.w3.org/2000/svg" xmlns:xlink="http://www.w3.org/1999/xlink" x="0px" y="0px"
	 viewBox="0 0 293.8 315.9" style="enable-background:new 0 0 293.8 315.9;" xml:space="preserve">
<style type="text/css">
	.st0{clip-path:url(#SVGID_2_);}
	.st1{fill:none;stroke:#272425;stroke-miterlimit:10;}
</style>
<g>
	<defs>
		<rect id="SVGID_1_" width="293.8" height="315.9"/>
	</defs>
	<clipPath id="SVGID_2_">
		<use xlink:href="#SVGID_1_"  style="overflow:visible;"/>
	</clipPath>
	<g class="st0">
		<polygon class="st1" points="294.6,262.3 104.3,452.5 146.4,452.5 294.6,304.4 		"/>
		<polygon class="st1" points="294.5,346.5 188.4,452.5 230.5,452.5 294.5,388.5 		"/>
		<polygon class="st1" points="294.5,178.1 20.1,452.5 62.2,452.5 294.5,220.2 		"/>
		<polygon class="st1" points="294.5,430.6 272.6,452.5 294.5,452.5 		"/>
		<path class="st1" d="M0,346.5L0,346.5L0,346.5l188.5-188.5L0-30.6v0l0,0l0,0v0l-188.5,188.5L0,346.5L0,346.5L0,346.5z M0,11.5
			l146.4,146.4L0,304.4l-146.4-146.4L0,11.5z"/>
		<polygon class="st1" points="294.6,11.5 146.4,-136.7 104.3,-136.7 294.6,53.6 		"/>
		<polygon class="st1" points="0,178 0.1,178.1 0.1,178 20.1,157.9 0.1,137.9 0.1,137.8 0,137.8 -0.1,137.8 -0.1,137.9 -20.1,157.9 
			-0.1,178 -0.1,178.1 		"/>
		<path class="st1" d="M-0.1,430.6L-0.1,430.6h0.2v-0.2l272.5-272.5L0.1-114.6v-0.2L0-114.7l-0.1-0.1v0.2l-272.5,272.5L-0.1,430.5
			V430.6z M0-72.6l230.5,230.5L0,388.5l-230.5-230.5L0-72.6z"/>
		<polygon class="st1" points="294.5,-72.7 230.5,-136.7 188.4,-136.7 294.5,-30.6 		"/>
		<path class="st1" d="M0,262.2L0,262.2L0,262.2l104.3-104.3L0.1,53.8v-0.2L0,53.7l-0.1-0.1v0.2l-104.2,104.2L0,262.2L0,262.2
			L0,262.2z M0,95.8l62.2,62.2L0,220.1l-62.2-62.2L0,95.8z"/>
		<polygon class="st1" points="294.5,95.7 62.2,-136.7 20.1,-136.7 294.5,137.8 		"/>
		<polygon class="st1" points="294.5,-136.7 272.6,-136.7 294.5,-114.8 		"/>
		<polygon class="st1" points="-146.4,-136.7 -294.6,11.5 -294.6,53.6 -104.3,-136.7 		"/>
		<polygon class="st1" points="-230.5,-136.7 -294.5,-72.7 -294.5,-30.6 -188.4,-136.7 		"/>
		<polygon class="st1" points="-62.2,-136.7 -294.5,95.7 -294.5,137.8 -20.1,-136.7 		"/>
		<polygon class="st1" points="-294.5,-136.7 -294.5,-114.8 -272.6,-136.7 		"/>
		<polygon class="st1" points="-294.6,304.4 -146.4,452.5 -104.3,452.5 -294.6,262.3 		"/>
		<polygon class="st1" points="-294.5,388.5 -230.5,452.5 -188.4,452.5 -294.5,346.5 		"/>
		<polygon class="st1" points="-294.5,220.2 -62.2,452.5 -20.1,452.5 -294.5,178.1 		"/>
		<polygon class="st1" points="-294.5,452.5 -272.6,452.5 -294.5,430.6 		"/>
	</g>
</g>
</svg>
