<?xml version="1.0" encoding="utf-8"?>
<!-- Generator: Adobe Illustrator 19.0.0, SVG Export Plug-In . SVG Version: 6.00 Build 0)  -->
<svg version="1.1" id="Capa_1" xmlns="http://www.w3.org/2000/svg" xmlns:xlink="http://www.w3.org/1999/xlink" x="0px" y="0px"
	 viewBox="0 0 16.2 14.3" style="enable-background:new 0 0 16.2 14.3;" xml:space="preserve">
<style type="text/css">
	.st0{fill:#7E7E7E;}
</style>
<path id="XMLID_93_" class="st0" d="M16,2c-0.3,0.1-1,0.4-1.8,0.5c0.5-0.3,1.2-1.1,1.3-1.7c-0.5,0.3-1.5,0.7-2,0.7v0
	c-0.6-0.6-1.4-1-2.3-1C9.4,0.4,8,1.9,8,3.6c0,0.2,0,0.5,0.1,0.7l0,0C5.7,4.3,3,3.1,1.5,1c-1,1.7-0.1,3.6,1,4.2c-0.4,0-1.1,0-1.4-0.4
	C1,6,1.5,7.5,3.5,8c-0.4,0.2-1,0.1-1.3,0.1c0.1,0.9,1.4,2.2,2.9,2.2c-0.5,0.6-2.5,1.7-4.6,1.3c1.5,0.9,3.2,1.4,5,1.4
	c5.2,0,9.2-4.2,9-9.4c0,0,0,0,0,0c0,0,0,0,0,0c0,0,0,0,0,0C14.9,3.3,15.5,2.7,16,2z"/>
</svg>
