<?xml version="1.0" encoding="utf-8"?>
<!-- Generator: Adobe Illustrator 19.0.0, SVG Export Plug-In . SVG Version: 6.00 Build 0)  -->
<svg version="1.1" id="Capa_1" xmlns="http://www.w3.org/2000/svg" xmlns:xlink="http://www.w3.org/1999/xlink" x="0px" y="0px"
	 viewBox="0 0 78.9 29.3" style="enable-background:new 0 0 78.9 29.3;" xml:space="preserve">
<style type="text/css">
	.st0{fill:#7E7E7E;}
</style>
<g>
	<g id="XMLID_192_">
		<g id="XMLID_199_">
			<path id="XMLID_216_" class="st0" d="M19.1,20.3h-8.6V20h0.7c1.3,0,1.7-0.4,1.7-1.3c0-0.4-0.2-0.9-0.4-1.5l-0.9-2.4H5.2l-1,2.5
				c-0.3,0.7-0.4,1.2-0.4,1.5c0,0.8,0.5,1.2,1.7,1.2h1.2v0.3H0.7V20h0.6c1,0,1.7-0.8,2.5-2.8l6.2-14.6h0.4l5.8,15.2
				c0.6,1.5,0.9,2.1,2.1,2.1h0.6V20.3z M8.7,6.5l-3.4,8h6.3L8.7,6.5z"/>
			<path id="XMLID_213_" class="st0" d="M44.5,18.6c0,1.2-1,1.9-2.7,1.9c-1.5,0-2.8-0.7-3.1-2.1c-1.1,1.3-2.5,2-4.4,2.1
				c-2.5,0.1-4-1.1-4-3c0-1.9,1.6-3.3,4.2-3.3h4.1v-2.8c0-2.3-1.1-3.7-3.5-3.7c-2.1,0-4,1.4-4,3.3c0.2-0.7,0.8-1.3,1.7-1.3
				c1,0,1.6,0.7,1.6,1.7c0,1-0.7,1.7-1.7,1.7c-1.1,0-1.8-0.8-1.8-2c0-2.3,2.1-3.8,5.7-3.8c3.6-0.1,5.3,1.8,5.3,4.8v6.4
				c0,0.9,0.3,1.3,1,1.3c0.7,0,1.2-0.5,1.2-1.3v-0.5h0.3V18.6z M35.9,14.6c-1.4,0-2.3,1-2.3,2.6c0,1.6,0.8,2.6,2.2,2.6
				c0.8,0,1.9-0.3,2.9-1.6v-3.6H35.9z"/>
			<path id="XMLID_211_" class="st0" d="M49,18.3c0,1.3,0.4,1.7,1.7,1.7h0.7v0.3h-8.2V20H44c1.3,0,1.7-0.4,1.7-1.7V3.2
				c0-1.2-0.4-1.5-1.6-1.5h-0.8V1.4l5.5-0.2L49,1.4V18.3z"/>
			<path id="XMLID_208_" class="st0" d="M63.6,18.3c-2,1.6-3.9,2.3-6,2.3c-4.1,0-6.7-2.4-6.7-6.4c0-4,2.7-6.8,6.8-6.8
				c3.6,0,5.6,2.1,5.6,5.5L63.3,13h-8.9v0.6c0,4.5,1.3,6.6,4.3,6.6c1.6,0,3.2-0.7,4.9-2.1L63.6,18.3z M59.6,12.7
				c0.5,0,0.7-0.2,0.7-0.9c0-2.5-1.1-4.2-2.7-4.2c-1.8,0-3,2.1-3.2,5.1H59.6z"/>
			<path id="XMLID_205_" class="st0" d="M78.1,18.6c0,1.2-1,1.9-2.7,1.9c-1.5,0-2.8-0.7-3.1-2.1c-1.1,1.3-2.5,2-4.4,2.1
				c-2.5,0.1-4-1.1-4-3c0-1.9,1.6-3.3,4.2-3.3h4.1v-2.8c0-2.3-1.1-3.7-3.5-3.7c-2.1,0-4,1.4-4,3.3c0.2-0.7,0.8-1.3,1.7-1.3
				c1,0,1.6,0.7,1.6,1.7c0,1-0.7,1.7-1.7,1.7c-1.1,0-1.8-0.8-1.8-2c0-2.3,2.1-3.8,5.7-3.8c3.6-0.1,5.3,1.8,5.3,4.8v6.4
				c0,0.9,0.3,1.3,1,1.3c0.7,0,1.2-0.5,1.2-1.3v-0.5h0.3V18.6z M69.5,14.6c-1.4,0-2.3,1-2.3,2.6c0,1.6,0.8,2.6,2.2,2.6
				c0.8,0,1.9-0.3,2.9-1.6v-3.6H69.5z"/>
			<path id="XMLID_204_" class="st0" d="M35.5,5.6c1.3-0.7,2.3-1.6,2.9-2.1c0.6-0.4,1-0.5,1.4-0.3c0.5,0.2,0.7,0.8,0.4,1.3
				c-0.2,0.3-0.5,0.6-1.2,0.7c-1,0.1-2.1,0.2-3.5,0.7L35.5,5.6z"/>
			<path id="XMLID_200_" class="st0" d="M24.5,17.9c-2.6-0.2-3.8-0.3-4.3-0.6c-0.4-0.2-0.6-0.4-0.6-0.7c0-0.6,0.5-0.9,1-1.1
				c0,0,1.5,1.2,4.1,1c0,0,0,0,0,0c0.1,0,0.1,0,0.2,0l0,0c2.8-0.3,4.6-2.1,4.6-4.9c0-1.4-0.7-2.5-1.8-3.2c1.8-0.1,3.5-1.6,3.5-3.4
				c0-1-0.6-1.8-1.6-1.8c-1,0-1.7,0.7-1.7,1.6c0,0.9,0.6,1.5,1.6,1.5c0.8,0,1.3-0.5,1.4-1.3c0,1.7-1.8,3.1-3.6,3.1
				c-0.8-0.5-1.8-0.7-2.9-0.7c-3.6,0-5.7,1.9-5.7,4.6c0,1.4,0.6,2.6,1.7,3.3c-1.5,0.5-2.5,1.5-2.5,3c0,1.9,1.3,2.8,2.8,3.3
				c-1.9,0.2-3.3,1.2-3.3,3.1c0,1.9,2.3,3.9,7.1,3.9c4,0,6.9-2.3,6.9-5.5C31.5,20.2,29.9,18.2,24.5,17.9z M24.2,7.7
				c1.5,0,2.5,1.2,2.5,3.9c0,3-1,4.5-2.5,4.5c-1.4,0-2.4-1.1-2.4-4.1C21.8,9.1,22.8,7.7,24.2,7.7z M24.5,28.6c-2.9,0-4.8-2-4.8-4
				c0-1.6,0.8-2.5,1.5-2.9c1.3,0.4,2.8,0.5,3.9,0.7c3.3,0.5,4.3,1.3,4.3,3C29.3,27.4,27.3,28.6,24.5,28.6z"/>
		</g>
		<g id="XMLID_193_">
			<path id="XMLID_194_" class="st0" d="M75.7,2.7c0.1-0.1,0.2-0.3,0.3-0.4c0.1-0.1,0.2-0.2,0.4-0.2c0.2-0.1,0.3-0.1,0.5-0.1
				c0.2,0,0.3,0,0.5,0.1c0.2,0.1,0.3,0.1,0.4,0.2c0.1,0.1,0.2,0.2,0.3,0.4C78,2.8,78.1,3,78.1,3.2c0,0.2,0,0.4-0.1,0.5
				c-0.1,0.2-0.2,0.3-0.3,0.4c-0.1,0.1-0.2,0.2-0.4,0.2c-0.2,0.1-0.3,0.1-0.5,0.1c-0.2,0-0.3,0-0.5-0.1c-0.2-0.1-0.3-0.1-0.4-0.2
				c-0.1-0.1-0.2-0.2-0.3-0.4c-0.1-0.1-0.1-0.3-0.1-0.5C75.6,3,75.6,2.8,75.7,2.7z M76,3.6c0,0.1,0.1,0.2,0.2,0.3
				c0.1,0.1,0.2,0.2,0.3,0.2c0.1,0,0.2,0.1,0.4,0.1c0.1,0,0.2,0,0.4-0.1c0.1,0,0.2-0.1,0.3-0.2c0.1-0.1,0.1-0.2,0.2-0.3
				c0-0.1,0.1-0.2,0.1-0.4c0-0.1,0-0.3-0.1-0.4c0-0.1-0.1-0.2-0.2-0.3c-0.1-0.1-0.2-0.2-0.3-0.2c-0.1,0-0.2-0.1-0.4-0.1
				c-0.1,0-0.2,0-0.4,0.1c-0.1,0-0.2,0.1-0.3,0.2C76.1,2.6,76,2.7,76,2.8c0,0.1-0.1,0.2-0.1,0.4C75.9,3.3,75.9,3.4,76,3.6z
				 M76.9,2.5c0.2,0,0.3,0,0.4,0.1c0.1,0.1,0.1,0.2,0.1,0.3c0,0.1,0,0.1,0,0.2c0,0,0,0.1-0.1,0.1c0,0-0.1,0.1-0.1,0.1
				c0,0-0.1,0-0.1,0l0.4,0.6h-0.3l-0.3-0.6h-0.2v0.6h-0.3V2.5H76.9z M76.9,3.1c0.1,0,0.1,0,0.2,0c0.1,0,0.1-0.1,0.1-0.2
				c0,0,0-0.1,0-0.1c0,0,0,0-0.1-0.1c0,0-0.1,0-0.1,0c0,0-0.1,0-0.1,0h-0.2v0.4H76.9z"/>
		</g>
	</g>
</g>
</svg>
